<svg xmlns="http://www.w3.org/2000/svg" enable-background="new 0 0 512 512" viewBox="0 0 512 512" id="faq"><g><g><g><path fill="#5596fb" d="M473.5,192.25H391c-4.143,0-7.5,3.357-7.5,7.5s3.357,7.5,7.5,7.5h82.5
				c12.406,0,22.5,10.094,22.5,22.5v180c0,12.406-10.094,22.5-22.5,22.5h-15c-4.143,0-7.5,3.357-7.5,7.5v21.487l-32.698-27.249
				c-1.349-1.123-3.047-1.738-4.802-1.738H151c-12.406,0-22.5-10.094-22.5-22.5v-135c0-4.143-3.357-7.5-7.5-7.5s-7.5,3.357-7.5,7.5
				v135c0,20.678,16.822,37.5,37.5,37.5h259.784l42.914,35.762c2.24,1.866,5.354,2.262,7.982,1.03
				c2.636-1.234,4.319-3.882,4.319-6.792v-30h7.5c20.678,0,37.5-16.822,37.5-37.5v-180C511,209.072,494.178,192.25,473.5,192.25z"></path><path fill="#5596fb" d="M158.5 312.25H466c4.143 0 7.5-3.357 7.5-7.5s-3.357-7.5-7.5-7.5H158.5c-4.143 0-7.5 3.357-7.5 7.5S154.357 312.25 158.5 312.25zM158.5 357.25H466c4.143 0 7.5-3.357 7.5-7.5s-3.357-7.5-7.5-7.5H158.5c-4.143 0-7.5 3.357-7.5 7.5S154.357 357.25 158.5 357.25zM158.5 402.25h180c4.143 0 7.5-3.357 7.5-7.5s-3.357-7.5-7.5-7.5h-180c-4.143 0-7.5 3.357-7.5 7.5S154.357 402.25 158.5 402.25z"></path></g><g><path fill="#283954" d="M361,27.25H38.5C17.822,27.25,1,44.072,1,64.75v180c0,20.678,16.822,37.5,37.5,37.5H46v30
				c0,2.91,1.684,5.558,4.319,6.792c2.629,1.232,5.743,0.835,7.982-1.03l42.914-35.762H361c20.678,0,37.5-16.822,37.5-37.5v-180
				C398.5,44.072,381.678,27.25,361,27.25z M383.5,244.75c0,12.406-10.094,22.5-22.5,22.5H98.5c-1.755,0-3.453,0.615-4.802,1.738
				L61,296.237V274.75c0-4.143-3.357-7.5-7.5-7.5h-15c-12.406,0-22.5-10.094-22.5-22.5v-180c0-12.406,10.094-22.5,22.5-22.5H361
				c12.406,0,22.5,10.094,22.5,22.5V244.75z"></path><path fill="#283954" d="M113.697 109.75c4.143 0 7.5-3.357 7.5-7.5s-3.357-7.5-7.5-7.5H72.25c-4.143 0-7.5 3.357-7.5 7.5v105c0 4.143 3.357 7.5 7.5 7.5s7.5-3.357 7.5-7.5v-45h33.947c4.143 0 7.5-3.357 7.5-7.5s-3.357-7.5-7.5-7.5H79.75v-37.5H113.697zM174.091 99.847c-1.03-3.045-3.886-5.095-7.101-5.097-.001 0-.002 0-.004 0-3.212 0-6.068 2.046-7.102 5.088-35.997 106.144-35.924 105.609-35.924 107.412 0 4.143 3.357 7.5 7.5 7.5 3.463 0 6.378-2.348 7.24-5.537.576-1.809 4.922-14.69 10.769-31.963h34.975l10.964 32.403c1.059 3.127 3.977 5.099 7.104 5.099 5.122 0 8.751-5.042 7.105-9.905L174.091 99.847zM154.551 162.25c3.985-11.759 8.3-24.484 12.424-36.635l12.396 36.635H154.551zM274.75 94.75c-33.084 0-60 26.916-60 60s26.916 60 60 60c13.422 0 25.829-4.431 35.835-11.906l11.784 10.101c3.15 2.702 7.885 2.324 10.575-.813 2.695-3.145 2.331-7.88-.813-10.575l-10.699-9.171c8.321-10.301 13.318-23.393 13.318-37.635C334.75 121.666 307.834 94.75 274.75 94.75zM274.75 199.75c-24.813 0-45-20.187-45-45s20.187-45 45-45 45 20.187 45 45c0 10.52-3.638 20.2-9.709 27.871l-16.594-14.224c-3.146-2.698-7.88-2.331-10.575.813s-2.331 7.88.813 10.575l15.124 12.964C291.844 197.175 283.595 199.75 274.75 199.75z"></path></g></g></g></svg>